<?xml version="1.0" encoding="UTF-8"?>
<svg version="1.1" xmlns="http://www.w3.org/2000/svg" width="1800" height="664">
<path d="M0 0 C83.49 0 166.98 0 253 0 C261.05236486 20.70608108 261.05236486 20.70608108 263.4375 27.625 C263.69208984 28.35460937 263.94667969 29.08421875 264.20898438 29.8359375 C264.80884692 31.55629802 265.40492176 33.27797872 266 35 C269.36972626 27.82731351 272.05995876 20.47139404 274.6875 13 C275.48051783 10.74909818 276.27595433 8.4990465 277.07421875 6.25 C277.42057373 5.26515625 277.76692871 4.2803125 278.1237793 3.265625 C279 1 279 1 280 0 C281.35006197 -0.09636367 282.7051287 -0.12371954 284.05862522 -0.12304783 C284.93843195 -0.12503888 285.81823869 -0.12702993 286.72470623 -0.12908131 C287.70231236 -0.12616847 288.67991849 -0.12325563 289.68714905 -0.12025452 C290.71705867 -0.12110894 291.74696829 -0.12196337 292.80808729 -0.12284368 C296.2875214 -0.12450157 299.76690816 -0.11897208 303.24633789 -0.11352539 C305.72921243 -0.11324356 308.21208706 -0.11340117 310.69496155 -0.1139679 C316.05501486 -0.11419622 321.4150532 -0.11134478 326.77510262 -0.10573006 C334.52491796 -0.09761728 342.27472742 -0.09500007 350.02454656 -0.09374207 C362.59685273 -0.09155119 375.16915242 -0.08489016 387.74145508 -0.07543945 C399.95727506 -0.06626624 412.17309329 -0.05918496 424.38891602 -0.05493164 C425.14137618 -0.05466892 425.89383634 -0.05440619 426.66909833 -0.05413551 C430.44381364 -0.05283051 434.21852896 -0.05156679 437.99324429 -0.05032361 C469.32883438 -0.0399499 500.66441586 -0.02205622 532 0 C532 14.85 532 29.7 532 45 C487.78 45 443.56 45 398 45 C397.67 35.76 397.34 26.52 397 17 C392.05 30.86 392.05 30.86 387 45 C307.47 45 227.94 45 146 45 C143.04988796 37.91973111 140.17379624 30.97769235 137.6875 23.75 C136.800625 21.1925 135.91375 18.635 135 16 C134.67 25.57 134.34 35.14 134 45 C89.78 45 45.56 45 0 45 C0 30.15 0 15.3 0 0 Z " fill="#FFFFFF" transform="translate(988,268)"/>
<path d="M0 0 C158.07 0 316.14 0 479 0 C482.73143229 8.70667534 486.15299572 16.88305018 488.8125 25.875 C489.11091797 26.84179688 489.40933594 27.80859375 489.71679688 28.8046875 C491.38812813 34.35818547 492.26378561 39.11028491 493 45 C330.31 45 167.62 45 0 45 C0 30.15 0 15.3 0 0 Z " fill="#FFFFFF" transform="translate(369,99)"/>
<path d="M0 0 C162.36 0 324.72 0 492 0 C489.41295029 15.52229824 485.07703863 30.84592275 478 45 C320.26 45 162.52 45 0 45 C0 30.15 0 15.3 0 0 Z " fill="#FFFFFF" transform="translate(369,521)"/>
<path d="M0 0 C146.85 0 293.7 0 445 0 C439.36724566 6.75930521 439.36724566 6.75930521 436.390625 8.859375 C435.72764404 9.33020508 435.06466309 9.80103516 434.3815918 10.28613281 C433.6781665 10.76920898 432.97474121 11.25228516 432.25 11.75 C431.50339111 12.2665918 430.75678223 12.78318359 429.98754883 13.31542969 C397.90892943 35.24182054 362.62283122 45.20828548 323.84541321 45.12025452 C322.44173688 45.12069143 321.03806063 45.12156853 319.63438481 45.12284368 C315.80549511 45.12506511 311.97663373 45.1210998 308.14774764 45.11606562 C304.00816136 45.11172731 299.86857655 45.11320994 295.72898865 45.1139679 C288.56623777 45.11449099 281.40349603 45.11136659 274.24074745 45.10573006 C263.88475053 45.09758601 253.52875802 45.09499686 243.17275824 45.09374207 C226.36883177 45.09155611 209.56491016 45.08490839 192.76098633 45.07543945 C176.44230168 45.06625353 160.12361835 45.05917847 143.80493164 45.05493164 C142.79821709 45.05466892 141.79150255 45.05440619 140.7542815 45.05413551 C135.7036424 45.05283042 130.6530033 45.05156673 125.60236418 45.05032361 C83.73490591 45.0399652 41.86745359 45.02208313 0 45 C0 30.15 0 15.3 0 0 Z " fill="#FFFFFF" transform="translate(369,605)"/>
<path d="M0 0 C41.1049245 -0.04531461 82.20984237 -0.08107405 123.31478688 -0.10213066 C128.17950314 -0.10463175 133.04421936 -0.10722043 137.90893555 -0.10986328 C138.8773182 -0.1103879 139.84570086 -0.11091252 140.84342844 -0.11145304 C156.47554122 -0.12013007 172.10763912 -0.13588499 187.73974311 -0.15430559 C203.80750922 -0.17308014 219.87526761 -0.18413261 235.94304425 -0.18817699 C245.83911519 -0.19090646 255.73514407 -0.19949291 265.63120205 -0.21583293 C272.43874509 -0.22649333 279.24626674 -0.2295804 286.0538175 -0.22700275 C289.96773336 -0.22573537 293.8815763 -0.22752667 297.79547882 -0.23841095 C349.028952 -0.37345705 394.10915892 5.61759006 436 37 C436.95003906 37.7115625 437.90007812 38.423125 438.87890625 39.15625 C443.3320011 42.55704857 443.3320011 42.55704857 445 44 C445 44.33 445 44.66 445 45 C298.15 45 151.3 45 0 45 C0 30.15 0 15.3 0 0 Z " fill="#FFFFFF" transform="translate(369,14)"/>
<path d="M0 0 C43.43255063 -0.15822675 86.86503214 -0.2835575 130.2978138 -0.35745731 C135.42478 -0.36621231 140.55174561 -0.37527256 145.67871094 -0.38452148 C147.20974859 -0.38727574 147.20974859 -0.38727574 148.7717163 -0.39008565 C165.30131038 -0.42054958 181.83073414 -0.47574419 198.36022717 -0.54006957 C215.31948128 -0.60551724 232.27864616 -0.64440871 249.23802137 -0.65861946 C259.70399378 -0.66822708 270.1694848 -0.69857734 280.63530904 -0.75541527 C287.81094544 -0.79240105 294.98633277 -0.80360436 302.16205758 -0.79450964 C306.30302379 -0.79002343 310.44314852 -0.7969265 314.5839653 -0.83443832 C318.37696411 -0.86854818 322.16855717 -0.87019761 325.96162122 -0.84629226 C327.97988119 -0.84194207 329.99812502 -0.87209667 332.01614428 -0.90356916 C338.01909674 -0.83426686 342.02538599 -0.64844518 346.67848969 3.36999416 C347.81121163 4.55611024 348.92083041 5.76496019 350 7 C351.02159581 7.98271539 352.05007771 8.95840516 353.08984375 9.921875 C359.53489119 16.26625315 365.43538155 22.85793319 371 30 C371.92559494 31.16941832 372.85138497 32.33868225 373.77734375 33.5078125 C374.70666287 34.69197617 375.6350648 35.87686027 376.5625 37.0625 C377.22596436 37.90349243 377.22596436 37.90349243 377.90283203 38.76147461 C381 42.76830462 381 42.76830462 381 45 C255.27 45 129.54 45 0 45 C0 30.15 0 15.3 0 0 Z " fill="#FFFFFF" transform="translate(458,352)"/>
<path d="M0 0 C125.73 0 251.46 0 381 0 C373.19476802 15.61046395 356.59277942 35.27148039 342 45 C339.4344905 45.24839699 339.4344905 45.24839699 336.28971577 45.24609566 C334.49377412 45.2520688 334.49377412 45.2520688 332.66155082 45.25816262 C331.32623106 45.2524562 329.99091209 45.246565 328.65559387 45.24050903 C327.2423222 45.24138072 325.82905083 45.24313101 324.4157812 45.24568737 C320.52317987 45.25017223 316.63068802 45.24214164 312.73810065 45.23213124 C308.54384014 45.2235154 304.34958608 45.22641558 300.15531921 45.22793579 C292.88546593 45.22898583 285.61564848 45.22269686 278.34580421 45.21146011 C267.83476141 45.19522412 257.32373598 45.18999906 246.812682 45.18748413 C229.76028403 45.18310404 212.70790517 45.16978642 195.65551758 45.15087891 C179.08813574 45.13252823 162.52075909 45.11836775 145.95336914 45.10986328 C144.93260482 45.10933783 143.91184051 45.10881239 142.86014394 45.10827102 C137.7394035 45.10566099 132.61866303 45.10313356 127.49792254 45.10064721 C84.99860112 45.07990493 42.49930304 45.04412144 0 45 C0 30.15 0 15.3 0 0 Z " fill="#FFFFFF" transform="translate(458,268)"/>
<path d="M0 0 C102.3 0 204.6 0 310 0 C310 14.85 310 29.7 310 45 C207.7 45 105.4 45 0 45 C0 30.15 0 15.3 0 0 Z " fill="#FFFFFF" transform="translate(16,605)"/>
<path d="M0 0 C102.3 0 204.6 0 310 0 C310 14.85 310 29.7 310 45 C207.7 45 105.4 45 0 45 C0 30.15 0 15.3 0 0 Z " fill="#FFFFFF" transform="translate(16,521)"/>
<path d="M0 0 C102.3 0 204.6 0 310 0 C310 14.85 310 29.7 310 45 C207.7 45 105.4 45 0 45 C0 30.15 0 15.3 0 0 Z " fill="#FFFFFF" transform="translate(16,99)"/>
<path d="M0 0 C102.3 0 204.6 0 310 0 C310 14.85 310 29.7 310 45 C207.7 45 105.4 45 0 45 C0 30.15 0 15.3 0 0 Z " fill="#FFFFFF" transform="translate(16,14)"/>
<path d="M0 0 C0.85323158 0.00037972 1.70646316 0.00075944 2.58555025 0.00115067 C3.56637545 -0.00084038 4.54720066 -0.00283143 5.55774784 -0.00488281 C7.19341329 -0.00051355 7.19341329 -0.00051355 8.86212248 0.00394398 C10.01045511 0.00308955 11.15878775 0.00223513 12.34191835 0.00135481 C15.54351613 -0.00001332 18.74507397 0.00313398 21.94666702 0.00813287 C25.39385276 0.0124342 28.84103649 0.01099118 32.28822416 0.0102306 C38.26542253 0.00970516 44.24261002 0.01285402 50.21980566 0.01846844 C58.86192454 0.02658077 67.50403814 0.02919838 76.14616042 0.03045643 C90.16598096 0.03264737 104.18579569 0.0393086 118.20561308 0.04875904 C131.82800861 0.05793207 145.45040258 0.06501344 159.07280058 0.06926686 C159.91188361 0.06952958 160.75096664 0.0697923 161.61547644 0.07006299 C165.82472982 0.07136798 170.0339832 0.0726317 174.2432366 0.07387489 C209.1868358 0.08424881 244.13042762 0.10214266 279.07402128 0.1241985 C279.07402128 14.9741985 279.07402128 29.8241985 279.07402128 45.1241985 C181.06402128 45.1241985 83.05402128 45.1241985 -17.92597872 45.1241985 C-16.06849644 38.93259089 -14.19607723 32.82763259 -12.04316622 26.74529225 C-11.7834302 26.00714787 -11.52369417 25.26900349 -11.25608736 24.5084911 C-10.71444048 22.97137101 -10.17161856 21.43466449 -9.62763888 19.89836842 C-8.7921887 17.53685227 -7.96241859 15.17338928 -7.13300997 12.80974537 C-6.60339931 11.30897527 -6.07346359 9.80831983 -5.54316622 8.30779225 C-5.29525332 7.60061558 -5.04734041 6.89343891 -4.791915 6.16483265 C-2.66131887 0.17161758 -2.66131887 0.17161758 0 0 Z " fill="#FFFFFF" transform="translate(1329.9259787201881,98.8758015036583)"/>
<path d="M0 0 C92.73 0 185.46 0 281 0 C286.58986362 14.906303 291.96567339 29.89702016 297 45 C198.99 45 100.98 45 0 45 C0 30.15 0 15.3 0 0 Z " fill="#FFFFFF" transform="translate(900,99)"/>
<path d="M0 0 C82.83 0 165.66 0 251 0 C251 14.85 251 29.7 251 45 C162.89 45 74.78 45 -16 45 C-3 6 -3 6 0 0 Z " fill="#FFFFFF" transform="translate(1358,14)"/>
<path d="M0 0 C82.83 0 165.66 0 251 0 C267 44 267 44 267 45 C178.89 45 90.78 45 0 45 C0 30.15 0 15.3 0 0 Z " fill="#FFFFFF" transform="translate(900,14)"/>
<path d="M0 0 C73.26 0 146.52 0 222 0 C222 14.85 222 29.7 222 45 C143.46 45 64.92 45 -16 45 C-10.96567339 29.89702016 -5.77012222 14.83745713 0 0 Z " fill="#FFFFFF" transform="translate(1298,183)"/>
<path d="M0 0 C73.26 0 146.52 0 222 0 C237 42 237 42 237 45 C158.79 45 80.58 45 0 45 C0 30.15 0 15.3 0 0 Z " fill="#FFFFFF" transform="translate(989,183)"/>
<path d="M0 0 C73.59 0 147.18 0 223 0 C223 14.85 223 29.7 223 45 C149.41 45 75.82 45 0 45 C0 30.15 0 15.3 0 0 Z " fill="#FFFFFF" transform="translate(1386,605)"/>
<path d="M0 0 C73.59 0 147.18 0 223 0 C223 14.85 223 29.7 223 45 C149.41 45 75.82 45 0 45 C0 30.15 0 15.3 0 0 Z " fill="#FFFFFF" transform="translate(1386,521)"/>
<path d="M0 0 C73.26 0 146.52 0 222 0 C222 14.85 222 29.7 222 45 C148.74 45 75.48 45 0 45 C0 30.15 0 15.3 0 0 Z " fill="#FFFFFF" transform="translate(900,605)"/>
<path d="M0 0 C73.26 0 146.52 0 222 0 C222 14.85 222 29.7 222 45 C148.74 45 75.48 45 0 45 C0 30.15 0 15.3 0 0 Z " fill="#FFFFFF" transform="translate(900,521)"/>
<path d="M0 0 C70.29 0 140.58 0 213 0 C208.83974853 15.2542554 203.26234812 30.09001367 198 45 C137.61 45 77.22 45 15 45 C12.03 36.75 9.06 28.5 6 20 C3.49865471 13.06618688 3.49865471 13.06618688 0.99609375 6.1328125 C0 3 0 3 0 0 Z " fill="#FFFFFF" transform="translate(1148,352)"/>
<path d="M0 0 C44.88 0 89.76 0 136 0 C140.68359853 17.56349449 140.68359853 17.56349449 141.75 24.125 C141.87503906 24.80691406 142.00007812 25.48882812 142.12890625 26.19140625 C143.26283859 32.98253952 143 38.84807798 143 46 C95.81 46 48.62 46 0 46 C0 30.82 0 15.64 0 0 Z " fill="#FFFFFF" transform="translate(723,436)"/>
<path d="M0 0 C51.15 0 102.3 0 155 0 C153.1450787 6.18307101 151.27554514 12.27378694 149.1171875 18.34375 C148.85745148 19.07952271 148.59771545 19.81529541 148.33010864 20.57336426 C147.78841828 22.10627395 147.24559642 23.63878424 146.70166016 25.17089844 C145.86726684 27.52178805 145.03689237 29.87406967 144.20703125 32.2265625 C143.67731586 33.72404061 143.14737627 35.22143943 142.6171875 36.71875 C142.3692746 37.42076538 142.12136169 38.12278076 141.86593628 38.84606934 C140.11592854 43.76814291 140.11592854 43.76814291 139 46 C98.41 46 57.82 46 16 46 C10.23965248 32.17516594 10.23965248 32.17516594 8.10546875 25.8984375 C7.74984612 24.86561142 7.74984612 24.86561142 7.38703918 23.81192017 C6.89715988 22.38616917 6.40916838 20.9597681 5.9230957 19.53271484 C5.17609581 17.34154821 4.42143944 15.15311873 3.66601562 12.96484375 C3.18705236 11.56786173 2.70851997 10.17073189 2.23046875 8.7734375 C1.8930793 7.79544693 1.8930793 7.79544693 1.5488739 6.79769897 C0 2.23067818 0 2.23067818 0 0 Z " fill="#FFFFFF" transform="translate(1177,436)"/>
<path d="M0 0 C47.19 0 94.38 0 143 0 C142.3931933 9.10210052 141.81067346 17.57806351 140.125 26.4375 C139.96386719 27.35208984 139.80273438 28.26667969 139.63671875 29.20898438 C138.58035401 34.92072397 137.1057021 39.38479441 135 45 C90.45 45 45.9 45 0 45 C0 30.15 0 15.3 0 0 Z " fill="#FFFFFF" transform="translate(723,183)"/>
<path d="M0 0 C44.22 0 88.44 0 134 0 C134 15.18 134 30.36 134 46 C89.78 46 45.56 46 0 46 C0 30.82 0 15.64 0 0 Z " fill="#FFFFFF" transform="translate(1386,436)"/>
<path d="M0 0 C44.22 0 88.44 0 134 0 C134 15.18 134 30.36 134 46 C89.78 46 45.56 46 0 46 C0 30.82 0 15.64 0 0 Z " fill="#FFFFFF" transform="translate(988,436)"/>
<path d="M0 0 C44.22 0 88.44 0 134 0 C134 15.18 134 30.36 134 46 C89.78 46 45.56 46 0 46 C0 30.82 0 15.64 0 0 Z " fill="#FFFFFF" transform="translate(104,436)"/>
<path d="M0 0 C43.89 0 87.78 0 133 0 C133 15.18 133 30.36 133 46 C89.11 46 45.22 46 0 46 C0 30.82 0 15.64 0 0 Z " fill="#FFFFFF" transform="translate(458,436)"/>
<path d="M0 0 C44.22 0 88.44 0 134 0 C134 14.85 134 29.7 134 45 C89.78 45 45.56 45 0 45 C0 30.15 0 15.3 0 0 Z " fill="#FFFFFF" transform="translate(1386,352)"/>
<path d="M0 0 C44.22 0 88.44 0 134 0 C134 14.85 134 29.7 134 45 C89.78 45 45.56 45 0 45 C0 30.15 0 15.3 0 0 Z " fill="#FFFFFF" transform="translate(988,352)"/>
<path d="M0 0 C44.22 0 88.44 0 134 0 C134 14.85 134 29.7 134 45 C89.78 45 45.56 45 0 45 C0 30.15 0 15.3 0 0 Z " fill="#FFFFFF" transform="translate(104,352)"/>
<path d="M0 0 C44.22 0 88.44 0 134 0 C134 14.85 134 29.7 134 45 C89.78 45 45.56 45 0 45 C0 30.15 0 15.3 0 0 Z " fill="#FFFFFF" transform="translate(104,268)"/>
<path d="M0 0 C44.22 0 88.44 0 134 0 C134 14.85 134 29.7 134 45 C89.78 45 45.56 45 0 45 C0 30.15 0 15.3 0 0 Z " fill="#FFFFFF" transform="translate(104,183)"/>
<path d="M0 0 C43.89 0 87.78 0 133 0 C133 14.85 133 29.7 133 45 C89.11 45 45.22 45 0 45 C0 30.15 0 15.3 0 0 Z " fill="#FFFFFF" transform="translate(458,183)"/>
<path d="M0 0 C31.35 0 62.7 0 95 0 C93.18765784 6.6452546 91.40030399 13.06492063 89.08203125 19.51171875 C88.73271545 20.49767029 88.73271545 20.49767029 88.37634277 21.50354004 C87.52609377 23.89974677 86.66892524 26.29349376 85.8125 28.6875 C82.9353125 36.7621875 82.9353125 36.7621875 80 45 C58.55 45 37.1 45 15 45 C0 3 0 3 0 0 Z " fill="#FFFFFF" transform="translate(1207,521)"/>
<path d="M0 0 C3.53523811 2.81585827 6.7997081 5.81101655 10 9 C10.84691406 9.81210937 10.84691406 9.81210937 11.7109375 10.640625 C22.50865478 21.95251929 26.5029262 37.78510725 26.34960938 52.94873047 C25.86681107 69.41932925 19.42887786 83.76643464 7.8203125 95.375 C-5.21157993 107.5044068 -20.58516392 112.63729728 -38.2578125 112.30859375 C-54.01278717 111.00938394 -69.24647288 104.90004288 -80 93 C-91.81617031 78.19091813 -97.56313002 62.15968218 -95.72265625 43.1328125 C-94.18826734 31.88062719 -89.88836239 21.99904826 -83 13 C-82.42636719 12.24976563 -81.85273437 11.49953125 -81.26171875 10.7265625 C-61.83418416 -12.8439039 -24.99175785 -17.21993072 0 0 Z M-76.0234375 11.796875 C-86.74108256 22.75700071 -91.39425104 37.98650495 -91.29907227 52.91918945 C-90.90384628 67.43059865 -85.18501296 80.4776114 -75.15625 91.0078125 C-62.06914788 103.09915685 -47.22277343 107.68049412 -29.7734375 107.3125 C-14.61452151 106.59207627 -2.2930989 98.69165324 8 88 C16.98699176 77.35198836 22.75929932 63.37519269 22.2421875 49.26953125 C20.30104877 31.07918285 12.6433064 16.85273354 -1.375 5.1875 C-8.35375786 0.02346277 -16.43615166 -3.53095779 -25 -5 C-25.73347656 -5.1340625 -26.46695312 -5.268125 -27.22265625 -5.40625 C-46.03991009 -8.09880014 -62.27617327 -0.41112027 -76.0234375 11.796875 Z " fill="#FFFFFF" transform="translate(1753,538)"/>
<path d="M0 0 C22.4 0 22.4 0 29 5.5 C33.26428457 10.83035572 32.57822717 17.47888242 32 24 C29.20661152 29.89715346 24.77434267 33.21069888 19 36 C19.36762451 36.50337891 19.73524902 37.00675781 20.11401367 37.52539062 C21.80797506 39.84823351 23.49775218 42.17409039 25.1875 44.5 C25.76564453 45.29148437 26.34378906 46.08296875 26.93945312 46.8984375 C30.50841261 51.81835905 33.83859574 56.80839074 37 62 C33.37677298 62.66470517 30.61202932 62.96624314 27 62 C23.79110515 58.9776688 21.49846095 55.50911911 19.1484375 51.79345703 C17.59327881 49.36484399 15.93522236 47.01436155 14.2734375 44.65795898 C12.49575257 42.11910523 10.75114684 39.55723031 9 37 C8.67 45.25 8.34 53.5 8 62 C5.36 62 2.72 62 0 62 C0 41.54 0 21.08 0 0 Z " fill="#FFFFFF" transform="translate(1702,558)"/>
<path d="M0 0 C12.21 0 24.42 0 37 0 C35.14251772 6.19160761 33.27009851 12.2965659 31.1171875 18.37890625 C30.72758347 19.48612282 30.72758347 19.48612282 30.33010864 20.6157074 C29.78846176 22.15282748 29.24563984 23.68953401 28.70166016 25.22583008 C27.86620998 27.58734622 27.03643987 29.95080922 26.20703125 32.31445312 C25.67742059 33.81522322 25.14748487 35.31587866 24.6171875 36.81640625 C24.3692746 37.52358292 24.12136169 38.23075958 23.86593628 38.95936584 C22.11479305 43.88520695 22.11479305 43.88520695 21 45 C19.00041636 45.04080783 16.99954746 45.04254356 15 45 C12.85942679 38.91427923 10.72367311 32.82688307 8.59130859 26.73828125 C7.86488724 24.66594901 7.13735141 22.59400709 6.40869141 20.52246094 C5.36329634 17.54984096 4.32187894 14.57585376 3.28125 11.6015625 C2.78908997 10.20618759 2.78908997 10.20618759 2.2869873 8.78262329 C1.98667603 7.92188202 1.68636475 7.06114075 1.37695312 6.17431641 C1.11047974 5.41486725 0.84400635 4.65541809 0.56945801 3.87295532 C0 2 0 2 0 0 Z " fill="#FFFFFF" transform="translate(1236,605)"/>
</svg>
