<?xml version="1.0" encoding="UTF-8"?>
<svg version="1.1" xmlns="http://www.w3.org/2000/svg" width="2048" height="2048">
<path d="M0 0 C2.08292423 -0.00131145 4.16584797 -0.00394409 6.2487691 -0.0077675 C11.91809478 -0.01441768 17.58724769 -0.00255589 23.25655138 0.01256669 C29.39056201 0.02560246 35.524564 0.02113229 41.65858459 0.01885986 C52.26818116 0.01729187 62.87771647 0.02654565 73.48729515 0.04357338 C84.60523939 0.06137096 95.72316139 0.07288057 106.84111977 0.07613182 C107.53437345 0.07633804 108.22762713 0.07654426 108.9418885 0.07675673 C112.46308077 0.07777183 115.98427306 0.07867594 119.50546537 0.07953735 C144.39662841 0.08582582 169.28776253 0.10600209 194.1789093 0.13444519 C218.34882962 0.16203211 242.518742 0.18326644 266.68867493 0.19596863 C267.80770945 0.1965605 267.80770945 0.1965605 268.94935073 0.19716432 C276.44174126 0.20112014 283.93413185 0.20494754 291.42652249 0.2086809 C306.68715026 0.21628798 321.94777752 0.22475173 337.20840454 0.23373413 C337.90994598 0.234146 338.61148742 0.23455787 339.3342877 0.23498222 C386.12129298 0.26254867 432.90828129 0.31014278 479.69526672 0.36076355 C476.49929976 3.58885079 473.37187385 6.67783402 469.69526672 9.36076355 C469.03526672 9.36076355 468.37526672 9.36076355 467.69526672 9.36076355 C467.69526672 10.02076355 467.69526672 10.68076355 467.69526672 11.36076355 C466.00252388 12.92509142 464.2395682 14.41404927 462.44526672 15.86076355 C461.47073547 16.65482605 460.49620422 17.44888855 459.49214172 18.26701355 C457.24631911 19.94824389 455.24868643 21.24212254 452.69526672 22.36076355 C452.69526672 23.02076355 452.69526672 23.68076355 452.69526672 24.36076355 C451.25947571 25.7775116 451.25947571 25.7775116 449.25386047 27.4349823 C444.52144005 31.46019949 440.13750244 35.77061727 435.75776672 40.17326355 C434.99141907 40.93574402 434.22507141 41.69822449 433.4355011 42.48381042 C432.70782532 43.21277527 431.98014954 43.94174011 431.23042297 44.6927948 C430.57437073 45.34997498 429.91831848 46.00715515 429.24238586 46.68424988 C427.61256194 48.29456943 427.61256194 48.29456943 426.69526672 50.36076355 C426.03526672 50.36076355 425.37526672 50.36076355 424.69526672 50.36076355 C424.45807922 50.9021698 424.22089172 51.44357605 423.97651672 52.00138855 C422.35178916 54.99326492 420.34507903 57.47235754 418.19526672 60.11076355 C417.40120422 61.0956073 416.60714172 62.08045105 415.78901672 63.09513855 C414.75261047 64.21662292 414.75261047 64.21662292 413.69526672 65.36076355 C413.03526672 65.36076355 412.37526672 65.36076355 411.69526672 65.36076355 C411.47096985 65.8815448 411.24667297 66.40232605 411.01557922 66.93888855 C409.20666534 70.25701462 406.87849694 73.13238984 404.57026672 76.11076355 C396.40680349 86.82852387 389.07594112 98.0969993 381.69526672 109.36076355 C380.67336243 110.91827332 380.67336243 110.91827332 379.6308136 112.50724792 C372.91657834 122.74854087 366.2569648 133.02102557 359.69526672 143.36076355 C354.78189329 151.08691592 349.78694315 158.75095161 344.69526672 166.36076355 C338.50400109 175.61814291 332.47254227 184.96824309 326.51948547 194.3802948 C320.02256819 204.64061429 313.42683121 214.81746819 306.65644836 224.89958191 C303.32488182 229.87429183 300.07955927 234.88477666 296.94526672 239.98576355 C292.38472869 247.40395265 287.54371955 254.62941055 282.69526672 261.86076355 C275.54831058 272.51554304 275.54831058 272.51554304 268.69526672 283.36076355 C264.22437619 290.6578956 259.4598025 297.75390232 254.69526672 304.86076355 C249.52022435 312.58148835 244.39130672 320.31408958 239.5202179 328.23161316 C235.62668643 334.53413928 231.56884561 340.72783785 227.50776672 346.92326355 C227.14275055 347.48016876 226.77773438 348.03707397 226.4016571 348.6108551 C224.92204283 350.86778953 223.44201671 353.12445298 221.96136475 355.38070679 C218.27903978 360.99235513 214.61070064 366.61307302 210.94526672 372.23576355 C210.02161316 373.65224182 210.02161316 373.65224182 209.07929993 375.09733582 C204.58249589 381.99522406 200.09400475 388.89849083 195.60835266 395.80363464 C191.47783486 402.16070063 187.33784855 408.51155378 183.19526672 414.86076355 C174.54715685 428.11661828 165.91137123 441.38037798 157.32026672 454.67326355 C152.36416283 462.34107732 147.37738042 469.98872728 142.38764954 477.63468933 C137.21538229 485.56086776 132.05408326 493.49410825 126.89839172 501.43107605 C124.68156377 504.84378838 122.46256198 508.25507493 120.24214172 511.66545105 C115.25039597 519.33412478 110.26172684 527.00312648 105.36323547 534.7318573 C100.61165941 542.22087531 95.83582305 549.69061141 90.88276672 557.04826355 C87.36063146 562.29624509 83.99108046 567.63173483 80.63276672 572.98576355 C77.01998054 578.74186056 73.3443794 584.4053922 69.39057922 589.9349823 C64.86460874 596.41108293 60.67303012 603.13748838 56.53120422 609.8646698 C51.10869657 618.65978504 45.44728624 627.27890168 39.69526672 635.86076355 C34.52045298 643.58165178 29.39131401 651.31407773 24.5202179 659.23161316 C18.86089902 668.39244962 12.88456171 677.35307405 6.97496033 686.35351562 C4.50911338 690.11175979 2.05896509 693.87984316 -0.38285828 697.6537323 C-21.05240346 729.58254997 -21.05240346 729.58254997 -29.30473328 738.36076355 C-29.96473328 738.36076355 -30.62473328 738.36076355 -31.30473328 738.36076355 C-31.52129578 738.9021698 -31.73785828 739.44357605 -31.96098328 740.00138855 C-33.76973325 743.17721699 -36.22197127 745.56804436 -38.80473328 748.11076355 C-39.30360046 748.61736511 -39.80246765 749.12396667 -40.31645203 749.6459198 C-44.05132189 753.36076355 -44.05132189 753.36076355 -46.30473328 753.36076355 C-46.30473328 754.02076355 -46.30473328 754.68076355 -46.30473328 755.36076355 C-48.28640727 757.11953739 -50.270627 758.74813866 -52.36723328 760.36076355 C-52.99629578 760.84843201 -53.62535828 761.33610046 -54.27348328 761.83854675 C-61.05793151 767.03351968 -68.0870841 771.79245765 -75.30473328 776.36076355 C-76.35403015 777.03752136 -77.40332703 777.71427917 -78.48442078 778.4115448 C-89.71570639 785.26290363 -102.01024429 789.79299048 -114.30473328 794.36076355 C-115.07108093 794.64612976 -115.83742859 794.93149597 -116.6269989 795.22550964 C-124.87225549 798.2236051 -133.1907833 800.05650429 -141.80473328 801.61076355 C-143.15655701 801.85608826 -143.15655701 801.85608826 -144.53569031 802.10636902 C-159.15541857 804.54950891 -173.95364342 804.50638628 -188.73014832 804.48101807 C-190.64549031 804.48145507 -192.56083225 804.48233236 -194.47617388 804.48360723 C-199.69615756 804.48582676 -204.91612045 804.48186602 -210.13610148 804.47682917 C-215.7814081 804.47248807 -221.42671366 804.47397368 -227.07202148 804.47473145 C-236.83859533 804.47525437 -246.60516246 804.4721318 -256.37173462 804.46649361 C-270.49234947 804.45834718 -284.61296109 804.45576017 -298.73357803 804.45450561 C-321.64645875 804.45232003 -344.55933511 804.44568196 -367.47221375 804.436203 C-389.72253908 804.42700881 -411.97286345 804.41992998 -434.22319031 804.41569519 C-435.25317334 804.4154979 -435.25317334 804.4154979 -436.30396412 804.41529663 C-443.20005756 804.41397803 -450.09615101 804.41270223 -456.99224446 804.41145777 C-514.76307651 804.40102851 -572.53390478 804.38339308 -630.30473328 804.36076355 C-629.01729059 801.05951673 -627.67516043 798.16083113 -625.72270203 795.2006073 C-625.20981628 794.41774353 -624.69693054 793.63487976 -624.16850281 792.82829285 C-623.61533386 791.99338318 -623.06216492 791.15847351 -622.49223328 790.29826355 C-621.30591474 788.49105105 -620.11972017 786.68375718 -618.93363953 784.87638855 C-618.32794128 783.95664246 -617.72224304 783.03689636 -617.09819031 782.08927917 C-614.35789405 777.9202687 -611.6446078 773.73385273 -608.92973328 769.54826355 C-604.18871789 762.25072623 -599.43573767 754.96103841 -594.67973328 747.67326355 C-590.37535896 741.07725385 -586.07851941 734.47663578 -581.80473328 727.86076355 C-576.89117442 720.25451546 -571.94549804 712.66941459 -566.99662781 705.08610535 C-562.88520788 698.78557577 -558.77898231 692.48171858 -554.67973328 686.17326355 C-553.88502625 684.9502655 -553.88502625 684.9502655 -553.07426453 683.70256042 C-551.48428113 681.25538549 -549.89447143 678.80809781 -548.30473328 676.36076355 C-540.8444633 664.87599529 -533.37464809 653.39755695 -525.89115906 641.92790222 C-521.3275055 634.93221678 -516.77308183 627.93059068 -512.22319031 620.9259491 C-508.05010185 614.50311589 -503.86589689 608.08758055 -499.67973328 601.67326355 C-494.89084758 594.33447537 -490.11452606 586.98786627 -485.35795593 579.62809753 C-476.57330799 566.03727397 -467.7344188 552.48168279 -458.89164734 538.92863464 C-454.33070153 531.93713853 -449.77869523 524.93988938 -445.23197937 517.93913269 C-442.29526936 513.41872589 -439.35357752 508.90162984 -436.40629578 504.3881073 C-435.41339539 502.86733582 -435.41339539 502.86733582 -434.4004364 501.31584167 C-433.13146458 499.37276788 -431.86197419 497.4300326 -430.59184265 495.48771667 C-425.8291987 488.19475475 -421.14514431 480.85381212 -416.49076843 473.49137878 C-412.83180194 467.70360909 -409.06942221 461.99432605 -405.25785828 456.30607605 C-403.48760573 453.63653521 -401.76200252 450.94584627 -400.05473328 448.23576355 C-396.92593639 443.28540683 -393.68705188 438.41442932 -390.42973328 433.54826355 C-384.29842594 424.38065254 -378.30398366 415.13507202 -372.43363953 405.79826355 C-367.34115177 397.70033297 -362.21154646 389.64219997 -356.87651062 381.70158386 C-353.82554818 377.15749335 -350.8468126 372.57101792 -347.89628601 367.96086121 C-339.31648187 354.56034077 -330.58680046 341.2554892 -321.89213562 327.92936707 C-317.85690752 321.74378033 -313.82796347 315.55415979 -309.80473328 309.36076355 C-305.14592721 302.18895619 -300.47791682 295.0232105 -295.80473328 287.86076355 C-287.1566234 274.60490882 -278.52083778 261.34114912 -269.92973328 248.04826355 C-264.97219612 240.3782323 -259.98406316 232.72830999 -254.99272156 225.08024597 C-250.92350611 218.84465969 -246.86068903 212.60498194 -242.80473328 206.36076355 C-237.5099022 198.20978938 -232.20191132 190.06745887 -226.89067078 181.9271698 C-222.8559705 175.74228975 -218.82748397 169.55342163 -214.80473328 163.36076355 C-210.14592721 156.18895619 -205.47791682 149.0232105 -200.80473328 141.86076355 C-196.0497613 134.57232496 -191.29791837 127.28187948 -186.55473328 119.98576355 C-186.02468689 119.17043152 -185.4946405 118.35509949 -184.9485321 117.51506042 C-181.92325247 112.85891112 -178.90596411 108.19769673 -175.89482117 103.53239441 C-174.10623373 100.76311935 -172.31357519 97.9965077 -170.51860046 95.23136902 C-169.73942524 94.0306368 -168.96133484 92.82919953 -168.18461609 91.62687683 C-160.59577864 79.90089896 -151.89998755 69.47519992 -142.30473328 59.36076355 C-141.584953 58.59796082 -141.584953 58.59796082 -140.85063171 57.81974792 C-133.57239011 50.15690359 -125.90083519 43.50331718 -117.30473328 37.36076355 C-116.75543152 36.96179871 -116.20612976 36.56283386 -115.6401825 36.15177917 C-98.50039338 23.80039067 -79.53882579 14.38628188 -59.30473328 8.36076355 C-58.51115417 8.12277039 -57.71757507 7.88477722 -56.89994812 7.63957214 C-54.51998014 6.93969568 -52.13438125 6.26773028 -49.74223328 5.61076355 C-49.07224304 5.42393005 -48.40225281 5.23709656 -47.71195984 5.04460144 C-31.89526162 0.95058637 -16.25451821 -0.07722963 0 0 Z " fill="#006BB6" transform="translate(698.3047332763672,730.6392364501953)"/>
<path d="M0 0 C59.05924947 -0.04580441 118.11849852 -0.08103696 177.17776202 -0.10213066 C184.1544781 -0.10462519 191.13119414 -0.10721832 198.10791016 -0.10986328 C199.1492747 -0.11025556 199.1492747 -0.11025556 200.21167692 -0.11065576 C222.68770948 -0.11916854 245.16373194 -0.13418374 267.63975838 -0.15259444 C291.40552221 -0.1720261 315.17127823 -0.18399867 338.93704998 -0.18817699 C353.16470565 -0.19091754 367.39233231 -0.19956512 381.61997904 -0.21583293 C391.38402187 -0.22642658 401.14804976 -0.22959524 410.91209792 -0.22700275 C416.54053832 -0.22572517 422.16892812 -0.22764679 427.79735947 -0.23841095 C432.96100804 -0.24821358 438.12457245 -0.24858985 443.28822507 -0.24179779 C445.14586986 -0.24095955 447.00352011 -0.24343682 448.8611543 -0.24976636 C463.79241567 -0.29763979 478.67657309 0.48988145 493.3125 3.6875 C494.46770142 3.93741699 494.46770142 3.93741699 495.64624023 4.19238281 C523.59399148 10.55574993 549.07260879 23.00841191 572 40 C572.64565918 40.44150391 573.29131836 40.88300781 573.95654297 41.33789062 C575.67010779 42.51266079 577.3391837 43.75176984 579 45 C579 45.66 579 46.32 579 47 C579.53109375 47.2165625 580.0621875 47.433125 580.609375 47.65625 C583.88669285 49.49840252 586.50802551 51.96137769 589.25 54.5 C590.08144531 55.24830078 590.08144531 55.24830078 590.9296875 56.01171875 C592.3285008 57.2968354 593.66944254 58.64433768 595 60 C595 60.66 595 61.32 595 62 C595.66 62 596.32 62 597 62 C598.5078125 63.4609375 598.5078125 63.4609375 600.125 65.375 C600.93324219 66.31472656 600.93324219 66.31472656 601.7578125 67.2734375 C603 69 603 69 603 71 C603.66 71 604.32 71 605 71 C606.68449309 73.00267512 608.22396082 75.00464295 609.75 77.125 C610.22880615 77.78371094 610.7076123 78.44242187 611.20092773 79.12109375 C616.67566787 86.76912657 621.64306669 94.74021894 626.6484375 102.69921875 C629.42891162 107.11642029 632.27369714 111.48234682 635.1875 115.8125 C639.03679321 121.5389273 642.80804634 127.31105695 646.5480957 133.109375 C650.47128756 139.18960858 654.41979172 145.25305043 658.375 151.3125 C667.06591174 164.63012511 675.74311941 177.95652223 684.375 191.3125 C688.69123815 197.99034839 693.02978372 204.65347536 697.375 211.3125 C716.97225261 241.34649856 716.97225261 241.34649856 723.20703125 251.18359375 C729.53214924 261.11912768 735.96400294 270.98163806 742.51757812 280.76782227 C745.40463483 285.0863588 748.21354612 289.4481301 750.98828125 293.83984375 C753.63260091 297.99373618 756.31520433 302.12218654 759 306.25 C759.82999512 307.52641357 759.82999512 307.52641357 760.67675781 308.82861328 C763.69640084 313.46915694 766.72213733 318.10565062 769.75390625 322.73828125 C776.23803187 332.65126375 782.68660264 342.58084294 788.96899414 352.62329102 C791.71612105 357.00704653 794.53658343 361.33177414 797.41723633 365.62890625 C800.33494383 369.99984182 803.19476176 374.40868814 806.0625 378.8125 C806.71734375 379.81732422 807.3721875 380.82214844 808.046875 381.85742188 C812.73156869 389.04756586 817.40928591 396.24223408 822.08422852 403.4387207 C826.84945317 410.77268226 831.62725551 418.09840979 836.4074707 425.42260742 C839.41675677 430.03451779 842.42275414 434.6484672 845.41796875 439.26953125 C846.50777033 440.95054817 847.5976132 442.63153833 848.6875 444.3125 C849.20916748 445.11727783 849.73083496 445.92205566 850.26831055 446.7512207 C854.57983468 453.38738221 858.96536944 459.97279817 863.39526367 466.53051758 C867 471.89321368 867 471.89321368 867 473 C822.14906258 473.06854437 777.29811929 473.13221748 732.44714355 473.16937256 C731.78224133 473.16992479 731.1173391 473.17047702 730.43228833 473.17104598 C715.97858346 473.18302049 701.52487804 473.1941008 687.07117179 473.20426132 C679.98201805 473.20925021 672.89286446 473.21443649 665.80371094 473.21972656 C665.09829372 473.2202496 664.3928765 473.22077263 663.666083 473.22131152 C640.84395872 473.2383255 618.02187432 473.26834713 595.19977415 473.30518888 C571.72686814 473.34301198 548.25398415 473.3675632 524.78104818 473.37565996 C509.66823293 473.38090083 494.55553467 473.3975804 479.44275624 473.43166587 C469.52167558 473.45289502 459.60065371 473.45918111 449.67955202 473.45400551 C443.96524843 473.45145677 438.25114432 473.45521858 432.53687668 473.4768219 C387.81386098 473.63737322 387.81386098 473.63737322 369 469 C368.07854722 468.77607968 367.15709444 468.55215936 366.20771885 468.32145357 C340.71396431 462.02328118 316.98085151 450.72262322 296 435 C295.35579102 434.55849609 294.71158203 434.11699219 294.04785156 433.66210938 C292.33317143 432.4868695 290.6625195 431.24793655 289 430 C289 429.34 289 428.68 289 428 C288.43539063 427.7525 287.87078125 427.505 287.2890625 427.25 C277.45943906 421.88228754 267.59325185 410.9716395 261 402 C261 401.34 261 400.68 261 400 C260.34 400 259.68 400 259 400 C257.36570249 397.9055032 255.85832766 395.82217909 254.375 393.625 C253.95476562 393.02171875 253.53453125 392.4184375 253.1015625 391.796875 C250 387.26537135 250 387.26537135 250 385 C249.34 385 248.68 385 248 385 C246.80859375 383.3046875 246.80859375 383.3046875 245.4375 380.875 C242.968207 376.62398953 240.41420699 372.443674 237.75 368.3125 C237.37029053 367.7232373 236.99058105 367.13397461 236.59936523 366.52685547 C233.77250157 362.15790632 230.89422203 357.82453222 228 353.5 C222.18535179 344.81136856 216.53541402 336.02148466 210.95703125 327.1796875 C204.35606514 316.73429857 197.62952524 306.38815538 190.75 296.125 C185.65970435 288.5309528 180.61857709 280.92218751 175.82836914 273.13427734 C171.89508886 266.76563479 167.79133877 260.50959966 163.6875 254.25 C163.3185965 253.68726379 162.94969299 253.12452759 162.5696106 252.54473877 C160.73255187 249.7429191 158.89492651 246.94147182 157.05712891 244.14013672 C154.15163899 239.70500601 151.26166307 235.25989909 148.375 230.8125 C143.7585582 223.70273221 139.13230314 216.59944397 134.5 209.5 C125.85185696 196.24416712 117.21610437 182.98038536 108.625 169.6875 C103.67032938 162.0219037 98.68489684 154.37652652 93.69677734 146.73266602 C85.20857006 133.72452606 76.74227652 120.70233271 68.3125 107.65625 C63.69453736 100.51575864 59.04394381 93.39655959 54.38916016 86.2800293 C49.59222697 78.93719074 44.87406781 71.54647796 40.1875 64.1328125 C37.26373927 59.5082102 34.2949982 54.92079161 31.25 50.375 C27.63685789 44.97946657 24.09591248 39.54092839 20.58154297 34.08081055 C17.74670118 29.68149836 14.88353489 25.30250692 11.99609375 20.9375 C10.97237671 19.38446167 10.97237671 19.38446167 9.92797852 17.80004883 C8.5775316 15.75261777 7.22266808 13.70809182 5.86303711 11.66674805 C4.93696655 10.25969604 4.93696655 10.25969604 3.9921875 8.82421875 C3.43901855 7.98979248 2.88584961 7.15536621 2.31591797 6.2956543 C1.07439082 4.12977679 0.54193523 2.40838328 0 0 Z " fill="#ED1A2E" transform="translate(1032,140)"/>
<path d="M0 0 C0.80667766 -0.00115384 1.61335533 -0.00230769 2.44447777 -0.0034965 C5.14645264 -0.00614253 7.84836788 -0.0016576 10.5503397 0.00279331 C12.5074118 0.0023572 14.46448385 0.00148155 16.42155558 0.00020415 C21.798692 -0.00203293 27.17580851 0.00196974 32.5529424 0.00698221 C38.35178287 0.01129779 44.15062221 0.00983949 49.94946384 0.00907993 C59.99612221 0.0085554 70.04277408 0.01169482 80.08943081 0.01731777 C94.61523866 0.02544234 109.14104351 0.02805232 123.66685338 0.02930576 C147.23361315 0.03140582 170.80036955 0.03814219 194.36712742 0.04760838 C217.26100744 0.05679366 240.15488654 0.06387686 263.04876804 0.06811619 C263.75453581 0.06824771 264.46030357 0.06837924 265.18745823 0.06851475 C272.27510905 0.06983328 279.36275988 0.07110909 286.45041071 0.07235361 C300.88859713 0.07488978 315.32678349 0.07771103 329.76496983 0.08070469 C330.42880506 0.08084198 331.09264029 0.08097927 331.77659174 0.08112072 C376.1016122 0.0903204 420.42663077 0.10618629 464.7516489 0.12304783 C464.0381377 1.24310467 464.0381377 1.24310467 463.31021214 2.38578892 C462.6835767 3.36989246 462.05694126 4.35399601 461.41131687 5.36792088 C460.79126774 6.34150043 460.17121861 7.31507999 459.5323801 8.31816196 C457.29344446 11.8447801 455.0825088 15.388199 452.8766489 18.93554783 C445.83360094 30.22210587 438.60696186 41.36791665 431.21112156 52.42651463 C425.14315745 61.5109402 419.11725999 70.60148351 413.7516489 80.12304783 C413.0916489 80.12304783 412.4316489 80.12304783 411.7516489 80.12304783 C411.5041489 80.99187595 411.2566489 81.86070408 411.0016489 82.75586033 C409.66707717 86.35086293 408.00349055 88.90176556 405.7516489 91.99804783 C402.16609429 97.01443683 398.80495646 102.12740162 395.5641489 107.37304783 C392.58646308 112.18445296 389.57534048 116.95300585 386.4078989 121.64257908 C384.1740768 124.98804378 381.99547013 128.36818989 379.8141489 131.74804783 C375.31314378 138.71939392 370.78789104 145.67458144 366.2516489 152.62304783 C361.86447855 159.34439311 357.48335315 166.06940936 353.1266489 172.81054783 C343.90502527 187.0791872 334.63016362 201.31310911 325.34735203 215.54199314 C317.33482261 227.82539092 309.33716136 240.11836777 301.3766489 252.43554783 C296.41911174 260.10557908 291.43097879 267.75550139 286.43963718 275.40356541 C282.37042174 281.63915169 278.30760466 287.87882943 274.2516489 294.12304783 C269.59286869 301.29487195 264.92483241 308.46060093 260.2516489 315.62304783 C255.49667673 322.91148672 250.74498264 330.2020283 246.0016489 337.49804783 C245.46290134 338.32643162 244.92415379 339.15481541 244.36908054 340.00830173 C241.97130202 343.69747358 239.57761517 347.38903609 237.20086765 351.09179783 C231.54149242 359.90215216 225.79352071 368.65411826 220.00778294 377.38189793 C219.14504032 378.68464746 218.28387127 379.9884408 217.42446995 381.29339695 C212.88414488 388.18329754 208.24083082 394.96734844 203.25555515 401.54492283 C202.83378498 402.10810215 202.41201481 402.67128147 201.97746372 403.25152683 C200.95173249 404.58174967 199.85744483 405.85859826 198.7516489 407.12304783 C198.0916489 407.12304783 197.4316489 407.12304783 196.7516489 407.12304783 C196.5144614 407.68507908 196.2772739 408.24711033 196.0328989 408.82617283 C194.46217194 411.64198825 192.53693426 413.60260199 190.2516489 415.87304783 C189.4575864 416.67226658 188.6635239 417.47148533 187.8453989 418.29492283 C185.7516489 420.12304783 185.7516489 420.12304783 183.7516489 420.12304783 C183.7516489 420.78304783 183.7516489 421.44304783 183.7516489 422.12304783 C180.30876327 425.37983154 176.49706276 428.22309745 172.7516489 431.12304783 C172.18430027 431.5639072 171.61695164 432.00476658 171.03241062 432.45898533 C133.80171543 461.15699822 91.16610809 473.32213871 44.49717808 473.24330235 C42.56380124 473.24373905 40.63042447 473.24461577 38.69704801 473.24589151 C33.41327853 473.24811703 28.12952949 473.24414191 22.84576261 473.23911345 C17.13700798 473.23478112 11.42825444 473.23625735 5.71949863 473.23701572 C-4.16171763 473.2375392 -14.04292728 473.23441085 -23.92414188 473.22877789 C-38.21059017 473.22063896 -52.49703526 473.21804521 -66.78348561 473.21678989 C-89.9642402 473.21460314 -113.14499103 473.20796186 -136.32574368 473.19848728 C-158.83908984 473.18929614 -181.35243507 473.18221582 -203.86578274 473.17797947 C-204.56030295 473.17784794 -205.25482317 473.17771642 -205.97038945 473.17758091 C-212.94533875 473.17626233 -219.92028806 473.17498653 -226.89523737 473.17374205 C-285.34627762 473.16330912 -343.79731432 473.14567032 -402.2483511 473.12304783 C-400.85422585 469.53432593 -399.30839771 466.4260115 -397.22100735 463.18554783 C-396.60282131 462.22213474 -395.98463528 461.25872166 -395.34771633 460.26611423 C-394.6755508 459.22890232 -394.00338528 458.19169041 -393.3108511 457.12304783 C-392.61225979 456.0381406 -391.91366848 454.95323338 -391.19390774 453.83545017 C-384.78844993 443.89885041 -378.30743603 434.01083727 -371.80914211 424.13476658 C-367.22753376 417.16901265 -362.70083103 410.17210765 -358.2483511 403.12304783 C-354.03022692 396.44895948 -349.73730833 389.83829939 -345.3421011 383.27929783 C-343.1519122 379.9776698 -341.00686677 376.64888882 -338.8733511 373.31054783 C-335.7192451 368.37739503 -332.50756995 363.48736597 -329.2483511 358.62304783 C-323.29213449 349.72400047 -317.52496739 340.7084128 -311.78350735 331.66992283 C-311.16959133 330.70385105 -310.55567532 329.73777927 -309.92315578 328.74243259 C-308.71307611 326.83736616 -307.50403284 324.93164087 -306.29620266 323.02514744 C-302.07552929 316.37644583 -297.73976783 309.81441222 -293.3342886 303.28711033 C-289.16298374 297.09681773 -285.15258134 290.82084991 -281.1858511 284.49804783 C-277.57300752 278.74198248 -273.89746686 273.07842349 -269.9436636 267.54882908 C-264.37579435 259.58190097 -259.31834004 251.24893644 -254.1858511 242.99804783 C-250.71730125 237.42434691 -247.15615682 231.92932541 -243.4905386 226.48242283 C-240.63579717 222.22530612 -237.85135584 217.92242217 -235.0608511 213.62304783 C-234.50405666 212.7652573 -233.94726223 211.90746677 -233.37359524 211.02368259 C-232.23058135 209.26216955 -231.08776068 207.50053112 -229.94512844 205.73877048 C-227.25683118 201.59453785 -224.56530915 197.45240317 -221.8733511 193.31054783 C-221.34266018 192.49392673 -220.81196926 191.67730564 -220.2651968 190.83593845 C-215.46310546 183.44876791 -210.64931749 176.06924702 -205.83477688 168.6901865 C-201.79990066 162.50507089 -197.77126162 156.31595196 -193.7483511 150.12304783 C-188.455816 141.97567236 -183.15091433 133.83642099 -177.84088039 125.70044041 C-174.27894759 120.24156596 -170.72548456 114.77734051 -167.18023586 109.30761814 C-162.42412291 101.97375363 -157.64396838 94.65643965 -152.8108511 87.37304783 C-152.33881252 86.65850437 -151.86677395 85.94396091 -151.38043118 85.20776463 C-148.99498807 81.62643065 -146.55149534 78.09139105 -144.02569485 74.60742283 C-143.54221584 73.93936619 -143.05873684 73.27130955 -142.56060696 72.58300877 C-142.12756252 72.10122166 -141.69451809 71.61943455 -141.2483511 71.12304783 C-140.5883511 71.12304783 -139.9283511 71.12304783 -139.2483511 71.12304783 C-139.02018703 70.57906345 -138.79202297 70.03507908 -138.55694485 69.47461033 C-136.86808132 66.43969737 -134.66277532 64.02369142 -132.3108511 61.49804783 C-131.57451443 60.70527439 -131.57451443 60.70527439 -130.82330227 59.89648533 C-100.28293974 27.41898845 -58.98261522 7.83047901 -15.2483511 1.12304783 C-14.18572676 0.94866186 -13.12310242 0.7742759 -12.02827734 0.59460551 C-7.99856162 0.09188581 -4.0521229 -0.01437605 0 0 Z " fill="#ADC32A" transform="translate(1434.248351097107,730.8769521713257)"/>
<path d="M0 0 C0.99261337 0.00222061 1.98522675 0.00444122 3.00791931 0.00672913 C4.12900589 0.00680466 5.25009247 0.00688019 6.40515137 0.00695801 C8.2348069 0.01469994 8.2348069 0.01469994 10.10142517 0.02259827 C11.96377052 0.02472069 11.96377052 0.02472069 13.86373901 0.02688599 C17.16982383 0.03154861 20.47584039 0.04053955 23.78190613 0.05158997 C27.15338042 0.06180625 30.52486175 0.06638407 33.89634705 0.07142639 C40.51550667 0.08248056 47.13463385 0.09923715 53.75376892 0.12025452 C59.61079952 16.34223255 65.32086713 32.60588305 70.87876892 48.93275452 C71.18167847 49.82238892 71.48458801 50.71202332 71.79667664 51.62861633 C72.98656481 55.12356012 74.17631677 58.61855022 75.36579895 62.1136322 C79.62871372 74.63448292 83.96092454 87.12939435 88.42173767 99.58119202 C88.76638565 100.54369118 88.76638565 100.54369118 89.11799622 101.52563477 C90.24817343 104.68053301 91.38122552 107.83432848 92.51841736 110.98670959 C92.92479431 112.11745911 93.33117126 113.24820862 93.74986267 114.41322327 C94.29404846 115.92178894 94.29404846 115.92178894 94.84922791 117.46083069 C95.60150628 119.67259002 96.23481792 121.84464593 96.75376892 124.12025452 C100.37201117 115.4446964 103.64323652 106.69907728 106.69126892 97.80775452 C109.0759145 90.85234971 111.5369955 83.95299798 114.25376892 77.12025452 C116.93543273 70.36671809 119.38771049 63.55310815 121.75376892 56.68275452 C127.11660829 41.11160175 132.84402187 25.70104068 138.88169861 10.37928772 C140.19804053 6.96940199 141.47036222 3.54267238 142.75376892 0.12025452 C161.56376892 0.12025452 180.37376892 0.12025452 199.75376892 0.12025452 C203.20732263 24.08791722 206.65310464 48.05031864 209.81626892 72.05775452 C211.71568325 86.46561083 213.68396429 100.86085206 215.75376892 115.24525452 C215.87727722 116.10421326 216.00078552 116.963172 216.1280365 117.84815979 C216.62659526 121.31511333 217.12530132 124.78204564 217.6242218 128.24894714 C221.30934055 153.87810419 224.87379497 179.52025843 228.10557556 205.21083069 C228.29557652 206.7184018 228.48559871 208.22597023 228.67564392 209.73353577 C228.81056496 210.80890846 228.81056496 210.80890846 228.94821167 211.90600586 C229.67580493 217.64937302 230.51148167 223.37205686 231.39537048 229.09364319 C231.75376892 232.12025452 231.75376892 232.12025452 231.75376892 238.12025452 C212.94376892 238.12025452 194.13376892 238.12025452 174.75376892 238.12025452 C171.77956888 212.98118276 168.82157774 187.84290919 166.00682068 162.68562317 C163.81811809 143.12970331 161.52392167 123.60333066 158.75376892 104.12025452 C158.36447205 105.27396545 157.97517517 106.42767639 157.57408142 107.61634827 C154.23152897 117.39942861 150.64433212 127.04126672 146.75376892 136.62025452 C142.98345666 145.90709153 139.52560311 155.25071192 136.27330017 164.72962952 C133.57694291 172.58033994 130.54101557 180.28549818 127.31626892 187.93275452 C124.58742606 194.42959712 122.13206807 201.01843605 119.6839447 207.62416077 C118.60015387 210.53247505 117.50360004 213.43583152 116.40611267 216.33900452 C115.99909119 217.41762756 115.5920697 218.49625061 115.17271423 219.6075592 C114.36235071 221.75460482 113.55054073 223.90110514 112.73716736 226.04701233 C112.17884216 227.52959534 112.17884216 227.52959534 111.60923767 229.04212952 C111.10879944 230.36615784 111.10879944 230.36615784 110.59825134 231.7169342 C109.6289309 234.35669388 109.6289309 234.35669388 108.75376892 238.12025452 C100.83376892 238.12025452 92.91376892 238.12025452 84.75376892 238.12025452 C79.80752394 225.50669405 75.02284344 212.84780708 70.37876892 200.12025452 C70.0529483 199.22939148 69.72712769 198.33852844 69.39143372 197.42066956 C65.06036011 185.57466802 60.831161 173.70240898 56.75645447 161.76551819 C54.23669091 154.41605794 51.52391879 147.15751919 48.71446228 139.91444397 C45.73936227 132.20218999 43.02679897 124.40642194 40.36680603 116.58045959 C40.05364441 115.66417786 39.74048279 114.74789612 39.41783142 113.80384827 C39.14406677 112.99488098 38.87030212 112.1859137 38.58824158 111.35243225 C37.77780608 109.18455285 36.82852141 107.1681412 35.75376892 105.12025452 C32.77358393 126.06025966 29.83469329 147.00180347 27.25376892 167.99525452 C25.41504117 182.94344764 23.49124745 197.87857627 21.50376892 212.80775452 C21.37284851 213.79572021 21.2419281 214.78368591 21.10704041 215.80158997 C20.73595083 218.59947174 20.36249264 221.3970259 19.98814392 224.19447327 C19.87794922 225.02590347 19.76775452 225.85733368 19.65422058 226.71395874 C19.49805267 227.8735334 19.49805267 227.8735334 19.33872986 229.05653381 C19.20479828 230.05803719 19.20479828 230.05803719 19.06816101 231.07977295 C18.70461058 233.43930414 18.22197155 235.77924135 17.75376892 238.12025452 C-1.05623108 238.12025452 -19.86623108 238.12025452 -39.24623108 238.12025452 C-37.49644942 224.12200125 -35.7462888 210.2587828 -33.39247131 196.36927795 C-30.64301516 180.06156303 -27.95827798 163.75152083 -25.68373108 147.37025452 C-23.82617774 134.01723215 -21.82521392 120.69066364 -19.74623108 107.37025452 C-19.51888275 105.91311035 -19.51888275 105.91311035 -19.28694153 104.42652893 C-17.31813163 91.82519941 -15.30203098 79.23245762 -13.23939514 66.64613342 C-11.82550499 57.93098835 -10.50002111 49.20398977 -9.19544983 40.47181702 C-9.01482498 39.26475098 -8.83420013 38.05768494 -8.64810181 36.81404114 C-7.73423228 30.70212552 -6.82559205 24.58949288 -5.92420959 18.47572327 C-5.58897437 16.22440143 -5.25361232 13.97309848 -4.91810608 11.72181702 C-4.76415878 10.66612518 -4.61021149 9.61043335 -4.45159912 8.52275085 C-4.30745071 7.56057648 -4.16330231 6.5984021 -4.01478577 5.60707092 C-3.88996826 4.76125458 -3.76515076 3.91543823 -3.6365509 3.04399109 C-3.07688639 0.28561954 -2.84680653 0.152407 0 0 Z " fill="#000000" transform="translate(1137.2462310791016,1669.8797454833984)"/>
<path d="M0 0 C18.81 0 37.62 0 57 0 C62.89762881 7.66691745 68.69892725 15.21143392 74.125 23.1875 C74.98738281 24.43370117 74.98738281 24.43370117 75.8671875 25.70507812 C76.40859375 26.49720703 76.95 27.28933594 77.5078125 28.10546875 C77.98879395 28.80824951 78.46977539 29.51103027 78.96533203 30.23510742 C80 32 80 32 80 34 C80.66 34 81.32 34 82 34 C83.4453125 36.01953125 83.4453125 36.01953125 85.125 38.8125 C88.11437738 43.63960937 91.28163635 48.23936361 94.6484375 52.80859375 C105.97686477 68.1828879 116.99631647 83.77988692 127.87988281 99.47119141 C134.03057298 108.3381688 140.22241381 117.1672389 146.57592773 125.89038086 C150.45395992 131.21659237 154.21921849 136.59888355 158 142 C158.495 71.71 158.495 71.71 159 0 C177.81 0 196.62 0 216 0 C216 78.54 216 157.08 216 238 C197.19 238 178.38 238 159 238 C152 228 152 228 148.7109375 223.28125 C143.0181864 215.11817148 137.29194702 206.98558193 131.4375 198.9375 C126.40390747 192.01631027 121.54823065 184.9885651 116.74291992 177.9074707 C112.90590496 172.27267315 108.9381766 166.75315209 104.88012695 161.27612305 C101.26978271 156.39619271 97.80214308 151.42831737 94.36328125 146.42578125 C87.00434725 135.73071355 79.44776941 125.1716004 71.80371094 114.67895508 C67.09070814 108.18900629 62.57035175 101.60161919 58 95 C57.67 142.19 57.34 189.38 57 238 C38.19 238 19.38 238 0 238 C0 159.46 0 80.92 0 0 Z " fill="#000000" transform="translate(1510,1670)"/>
<path d="M0 0 C140.70186335 0 140.70186335 0 161 19 C176.66997049 36.6764911 181.32631617 57.87769834 180 81 C179.58303202 85.07597918 178.9167273 89.00817478 178 93 C177.72542969 94.2375 177.72542969 94.2375 177.4453125 95.5 C173.59390764 110.33504093 164.15777339 123.98334337 151 132 C143.57715855 136.08080383 136.15421741 139.60997076 128 142 C134.54420341 150.42733133 141.21397447 158.73602968 148.01391602 166.95849609 C151.67623836 171.38793671 155.29959902 175.84367635 158.875 180.34375 C161.17674657 183.22093322 163.50143707 186.07859004 165.82910156 188.93481445 C174.48884429 199.56434373 174.48884429 199.56434373 178.3125 204.375 C178.84488281 205.04273438 179.37726563 205.71046875 179.92578125 206.3984375 C181 208 181 208 181 210 C181.66 210 182.32 210 183 210 C184.60140767 211.90413123 186.08961082 213.81222147 187.5625 215.8125 C188.45538705 217.00383824 189.34995312 218.19391971 190.24609375 219.3828125 C190.70097168 219.98641602 191.15584961 220.59001953 191.62451172 221.21191406 C194.42711673 224.85520108 197.41392671 228.3472525 200.3828125 231.85546875 C202 234 202 234 202 236 C202.66 236 203.32 236 204 236 C204 236.66 204 237.32 204 238 C194.91630624 238.3256118 185.83464344 238.57371952 176.74637032 238.72537041 C172.5250944 238.79819363 168.30783209 238.89676809 164.08886719 239.05615234 C160.01008264 239.20926118 155.93513256 239.29216202 151.85369492 239.3282814 C150.3039191 239.3539842 148.75433423 239.40419136 147.20621109 239.48022079 C135.43555392 240.03483546 135.43555392 240.03483546 131.40547943 236.66782379 C128.44350263 233.36573729 126.23426658 229.69921747 124.08559799 225.83606339 C122.27198286 222.76871031 120.07561491 220.05011834 117.875 217.25 C114 212.23529412 114 212.23529412 114 210 C113.34 210 112.68 210 112 210 C110.58984375 208.234375 110.58984375 208.234375 108.9375 205.75 C104.8124385 199.686245 100.42107861 193.84988744 96 188 C94.56166481 186.08396001 93.12416852 184.16729 91.6875 182.25 C90.94886719 181.26515625 90.21023438 180.2803125 89.44921875 179.265625 C84.08203125 172.109375 84.08203125 172.109375 82.55151367 170.06567383 C81.52037125 168.69281843 80.48539346 167.32283506 79.4465332 165.95581055 C77.06152561 162.80860361 74.7415858 159.65714652 72.5859375 156.34765625 C71.85632813 155.26355469 71.12671875 154.17945313 70.375 153.0625 C69.76398438 152.10472656 69.15296875 151.14695312 68.5234375 150.16015625 C65.27844318 146.96583694 65.27844318 146.96583694 56 147 C56 177.03 56 207.06 56 238 C37.52 238 19.04 238 0 238 C0 159.46 0 80.92 0 0 Z M56 47 C56 66.14 56 85.28 56 105 C62.39375 105.061875 68.7875 105.12375 75.375 105.1875 C77.37224121 105.21481201 79.36948242 105.24212402 81.42724609 105.27026367 C94.01121725 105.46721582 94.01121725 105.46721582 106 102 C106.91394531 101.58621094 107.82789063 101.17242188 108.76953125 100.74609375 C114.7316279 96.92715995 117.8241889 92.7518443 120 86 C121.93522069 77.13130651 121.35672056 67.6186289 116.8125 59.625 C112.57779784 53.52902756 106.63561882 50.17027097 99.51074219 48.37158203 C90.39176694 46.7292477 81.4774963 46.77413841 72.25 46.875 C66.8875 46.91625 61.525 46.9575 56 47 Z " fill="#000000" transform="translate(486,1670)"/>
<path d="M0 0 C51.48 0 102.96 0 156 0 C156 17.49 156 34.98 156 53 C123.33 53 90.66 53 57 53 C57 65.87 57 78.74 57 92 C88.68 92 120.36 92 153 92 C153 109.49 153 126.98 153 145 C121.32 145 89.64 145 57 145 C57 158.2 57 171.4 57 185 C89.67 185 122.34 185 156 185 C156 202.49 156 219.98 156 238 C104.52 238 53.04 238 0 238 C0 159.46 0 80.92 0 0 Z " fill="#000000" transform="translate(283,1670)"/>
<path d="M0 0 C20.46 0 40.92 0 62 0 C64.55778297 6.39445744 66.95330154 12.65971845 69.0625 19.1875 C71.78615888 27.4918185 74.66145864 35.73613981 77.60632324 43.96420288 C81.89424038 55.94609614 86.03169792 67.96610484 90.02758789 80.04931641 C94.99834554 95.06910665 100.13807606 110.03098885 105.26332092 124.99861145 C107.37806686 131.17632048 109.48404985 137.35696806 111.5859375 143.5390625 C112.76513679 147.00537464 113.94483874 150.47151526 115.125 153.9375 C115.41494843 154.78908691 115.70489685 155.64067383 116.00363159 156.51806641 C120.02300805 168.31335859 124.13383002 180.07280519 128.3125 191.8125 C132.11301001 202.49364232 135.77489969 213.20831247 139.25 224 C139.63325439 225.18827393 140.01650879 226.37654785 140.41137695 227.60083008 C143 235.73676251 143 235.73676251 143 238 C122.87 238 102.74 238 82 238 C80.040625 232.163125 78.08125 226.32625 76.0625 220.3125 C75.44511963 218.47856689 74.82773926 216.64463379 74.19165039 214.75512695 C73.70174611 213.29125854 73.21206636 211.82731495 72.72265625 210.36328125 C72.46867065 209.6115564 72.21468506 208.85983154 71.95300293 208.08532715 C71.70949097 207.35503296 71.465979 206.62473877 71.21508789 205.87231445 C70.89865074 204.92966484 70.89865074 204.92966484 70.57582092 203.9679718 C69.90709595 201.68248365 69.4670138 199.33506901 69 197 C43.59 197 18.18 197 -8 197 C-8.99 200.3 -9.98 203.6 -11 207 C-11.69428927 209.00214003 -12.40923517 210.99739761 -13.15625 212.98046875 C-13.53910156 213.99947266 -13.92195313 215.01847656 -14.31640625 216.06835938 C-14.70699219 217.09767578 -15.09757812 218.12699219 -15.5 219.1875 C-15.89058594 220.22841797 -16.28117187 221.26933594 -16.68359375 222.34179688 C-18.67686847 227.626995 -20.77207561 232.80150975 -23 238 C-42.8 238 -62.6 238 -83 238 C-81.8113964 233.2455856 -80.74922408 229.00183982 -79.08203125 224.48828125 C-78.53639526 222.99639282 -78.53639526 222.99639282 -77.97973633 221.47436523 C-77.59454834 220.43094971 -77.20936035 219.38753418 -76.8125 218.3125 C-73.85932894 210.22384476 -70.99486024 202.12003041 -68.3125 193.9375 C-66.16434924 187.39454773 -63.88498767 180.94400246 -61.40942383 174.51733398 C-58.90151053 167.91362778 -56.71146083 161.20765516 -54.5 154.5 C-52.10029423 147.22150436 -49.69943575 139.96245038 -46.9375 132.8125 C-44.02700968 125.24522517 -41.48370104 117.57073793 -38.97827148 109.8605957 C-37.29266773 104.71377016 -35.5008044 99.63937992 -33.53125 94.59375 C-30.97373559 88.0299022 -28.74558513 81.38358235 -26.5625 74.6875 C-23.75171432 66.15326935 -20.81690105 57.72092294 -17.58984375 49.3359375 C-14.99940574 42.4292264 -12.77748934 35.3849299 -10.50976562 28.3671875 C-7.35482615 18.72356994 -3.69838859 9.51014209 0 0 Z M30 74 C24.22553041 92.49454423 24.22553041 92.49454423 18.94360352 111.13330078 C16.79063817 119.00561453 14.23418555 126.75114704 11.67773438 134.50024414 C11.34580078 135.51594482 11.01386719 136.53164551 10.671875 137.578125 C10.3737793 138.47950195 10.07568359 139.38087891 9.76855469 140.30957031 C8.79820229 143.51480361 8.79820229 143.51480361 8 149 C22.85 149 37.7 149 53 149 C51.64844158 142.91798709 50.2140413 136.99188855 48.4609375 131.03125 C48.21874481 130.20044418 47.97655212 129.36963837 47.72702026 128.51365662 C46.94646938 125.84141168 46.16109785 123.17061799 45.375 120.5 C45.10876831 119.59202667 44.84253662 118.68405334 44.5682373 117.74856567 C40.26840995 103.09134238 35.7976963 88.50291048 31 74 C30.67 74 30.34 74 30 74 Z " fill="#000000" transform="translate(1837,1670)"/>
<path d="M0 0 C20.79 0 41.58 0 63 0 C65.31 6.93 67.62 13.86 70 21 C71.93253403 26.54326153 73.86836711 32.08427226 75.82452393 37.61907959 C80.72514835 51.49465054 85.51018051 65.40181467 90.125 79.375 C93.95296535 90.96528561 97.90375674 102.50178204 102 114 C106.35103691 126.21766224 110.53788172 138.48051248 114.61322021 150.79278564 C118.71291746 163.17823652 122.89598709 175.5331166 127.125 187.875 C132.83895095 204.55478718 138.44966525 221.26489978 144 238 C123.87 238 103.74 238 83 238 C77.75358177 224.88395443 73.46716415 211.40149245 69 198 C43.59 197.67 18.18 197.34 -8 197 C-8.33 198.65 -8.66 200.3 -9 202 C-9.44013561 203.3599166 -9.91301617 204.70967068 -10.41796875 206.046875 C-10.70349609 206.81128906 -10.98902344 207.57570313 -11.28320312 208.36328125 C-11.58162109 209.15089844 -11.88003906 209.93851563 -12.1875 210.75 C-15.59138438 219.79033958 -18.78314609 228.8855806 -22 238 C-41.8 238 -61.6 238 -82 238 C-81.26858353 232.8800847 -80.5598356 229.26150902 -78.84765625 224.5546875 C-78.40607178 223.3279834 -77.9644873 222.1012793 -77.50952148 220.83740234 C-77.27401581 220.19260925 -77.03851013 219.54781616 -76.79586792 218.88348389 C-75.78940349 216.12706717 -74.7980301 213.36530061 -73.8059845 210.60366821 C-73.2926567 209.17469256 -72.77864362 207.74596289 -72.26396179 206.31747437 C-69.75922398 199.35795759 -67.33916831 192.37078866 -64.9375 185.375 C-64.53104248 184.19333252 -64.12458496 183.01166504 -63.70581055 181.79418945 C-62.04191728 176.95404221 -60.3813176 172.11277131 -58.72216797 167.27099609 C-54.26526174 154.26844927 -49.77827893 141.28520827 -45.03857422 128.3828125 C-40.92266751 117.13253022 -37.07476817 105.78878714 -33.1875 94.45800781 C-28.18404836 79.88792372 -23.06572806 65.36201244 -17.86474609 50.86132812 C-14.29615553 40.88627436 -10.82926041 30.87822427 -7.39892578 20.85498047 C-7.0120459 19.72592285 -6.62516602 18.59686523 -6.2265625 17.43359375 C-5.89221191 16.45447021 -5.55786133 15.47534668 -5.21337891 14.46655273 C-3.51997665 9.6286013 -1.75169191 4.81715276 0 0 Z M30 75 C29.74420166 75.88333008 29.48840332 76.76666016 29.22485352 77.67675781 C28.00819897 81.86905286 26.78715283 86.06003517 25.5625 90.25 C25.22761063 91.39580536 25.22761063 91.39580536 24.88595581 92.5647583 C21.43521968 104.34656399 17.81748975 116.05708528 13.95727539 127.71191406 C13.61172607 128.7634668 13.26617676 129.81501953 12.91015625 130.8984375 C12.61246338 131.79224121 12.31477051 132.68604492 12.00805664 133.60693359 C10.49806745 138.68947895 9.28594974 143.85620103 8 149 C23.18 149 38.36 149 54 149 C49.18701696 132.26915418 44.325878 115.57645676 39.09594727 98.97192383 C36.59586877 91.01607469 34.25576632 83.02798552 32 75 C31.34 75 30.68 75 30 75 Z " fill="#000000" transform="translate(938,1670)"/>
<path d="M0 0 C144.34583477 0 144.34583477 0 166.0402832 20.79125977 C177.48286369 32.35313735 182.38113719 45.23373811 185 61 C185.185625 61.92554688 185.37125 62.85109375 185.5625 63.8046875 C188.48819023 85.17267508 185.67795632 110.23066816 172.9375 128.1875 C170.16408974 131.70537956 167.33513916 134.99837475 164 138 C163.47535156 138.52851562 162.95070312 139.05703125 162.41015625 139.6015625 C146.16912958 155.1902012 121.05227774 159.38848153 99.48046875 159.1953125 C98.39270142 159.19329834 97.30493408 159.19128418 96.1842041 159.18920898 C92.18525881 159.17887615 88.18637441 159.15095553 84.1875 159.125 C75.215625 159.08375 66.24375 159.0425 57 159 C57 185.07 57 211.14 57 238 C38.19 238 19.38 238 0 238 C0 159.46 0 80.92 0 0 Z M57 49 C57 68.14 57 87.28 57 107 C64.38375 107.0825 71.7675 107.165 79.375 107.25 C81.6854834 107.28641602 83.9959668 107.32283203 86.37646484 107.36035156 C88.23794632 107.37205004 90.09943815 107.38223911 91.9609375 107.390625 C92.90300049 107.41108887 93.84506348 107.43155273 94.81567383 107.45263672 C103.93760678 107.45736433 111.78632163 104.66789015 119 99 C124.78111428 92.88853633 126.53371725 86.71910736 126.375 78.5625 C126.36484863 77.8111377 126.35469727 77.05977539 126.34423828 76.28564453 C126.12009833 68.30521979 124.27295708 62.50095516 118.71484375 56.53515625 C107.60278241 46.58745669 90.08782352 48.74768571 76.25 48.875 C69.8975 48.91625 63.545 48.9575 57 49 Z " fill="#000000" transform="translate(68,1670)"/>
<path d="M0 0 C61.71 0 123.42 0 187 0 C187 17.49 187 34.98 187 53 C165.55 53 144.1 53 122 53 C122 114.05 122 175.1 122 238 C103.19 238 84.38 238 65 238 C65 176.95 65 115.9 65 53 C43.55 53 22.1 53 0 53 C0 35.51 0 18.02 0 0 Z " fill="#000000" transform="translate(687,1670)"/>
<path d="M0 0 C18.81 0 37.62 0 57 0 C57 78.54 57 157.08 57 238 C38.19 238 19.38 238 0 238 C0 159.46 0 80.92 0 0 Z " fill="#000000" transform="translate(1405,1670)"/>
</svg>
